PathFileType	4	(X/Y/Z)	C3D_Data\SPM_data\ik.trc
DataRate	CameraRate	NumFrames	NumMarkers	Units	OrigDataRate	OrigDataStartFrame	OrigNumFrames
120.000000	120.000000	4	51	mm	120.000000	115	132
Frame#	Time	Sternum			Neck			RShoulder			LShoulder			Xiphoid			Thoracic			RAsis			LAsis			RPsis			LPsis			Lumbar			RElbow			RWrist			RRadius			RUlna			LElbow			LWrist			LUlna			LRadius			LThighSuperior			LThighInferior			LThighLateral			LPatella			LShankSuperior			LShankInferior			LShankLateral			RThighSuperior			RThighInferior			RThighLateral			RPatella			RShankSuperior			RShankInferior			RShankLateral			RHeel			RToe			RMidfootLateral			RHindfoot			LHeel			LToe			LMidfootMedial			LMidfootLateral			LHindfoot			LMidfootSuperior			LToeMedial			LToeLateral			Oglobal			Sacral			Xglobal			Yglobal			Zglobal			RMidfootSuperior			
		X1	Y1	Z1	X2	Y2	Z2	X3	Y3	Z3	X4	Y4	Z4	X5	Y5	Z5	X6	Y6	Z6	X7	Y7	Z7	X8	Y8	Z8	X9	Y9	Z9	X10	Y10	Z10	X11	Y11	Z11	X12	Y12	Z12	X13	Y13	Z13	X14	Y14	Z14	X15	Y15	Z15	X16	Y16	Z16	X17	Y17	Z17	X18	Y18	Z18	X19	Y19	Z19	X20	Y20	Z20	X21	Y21	Z21	X22	Y22	Z22	X23	Y23	Z23	X24	Y24	Z24	X25	Y25	Z25	X26	Y26	Z26	X27	Y27	Z27	X28	Y28	Z28	X29	Y29	Z29	X30	Y30	Z30	X31	Y31	Z31	X32	Y32	Z32	X33	Y33	Z33	X34	Y34	Z34	X35	Y35	Z35	X36	Y36	Z36	X37	Y37	Z37	X38	Y38	Z38	X39	Y39	Z39	X40	Y40	Z40	X41	Y41	Z41	X42	Y42	Z42	X43	Y43	Z43	X44	Y44	Z44	X45	Y45	Z45	X46	Y46	Z46	X47	Y47	Z47	X48	Y48	Z48	X49	Y49	Z49	X50	Y50	Z50	X51	Y51	Z51	

116	0.9583333333333335	1147.391479492188	1443.212036132813	201.3544311523438	987.7900390625	1545.98876953125	209.8520660400391	1035.464477539063	1530.319702148438	368.2833251953125	1016.012512207031	1536.559204101563	69.44340515136722	1177.68701171875	1282.69677734375	205.6831970214844	901.0252075195313	1329.998291015625	214.727279663086	1088.736572265625	1024.227416992188	344.0986938476563	1095.993896484375	1014.789245605469	69.63341522216804	900.7451782226563	1047.57421875	259.5577697753907	898.2299194335938	1040.364379882813	156.2567596435547	911.3228759765625	1146.243530273438	207.4210357666016	1020.076416015625	1193.539794921875	476.1553955078126	1194.59130859375	986.47314453125	505.2337951660157	1220.40478515625	990.8341064453125	459.1089172363282	1160.037109375	958.4830932617188	501.0825500488282	919.4893798828125	1206.6748046875	-26.50063323974605	962.1373291015625	951.1900634765625	-94.89241027832026	931.0385131835938	944.18115234375	-61.46608734130854	1007.617797851563	944.5318603515625	-75.17129516601555	1075.95654296875	847.7726440429688	10.93397331237801	1183.6611328125	640.469482421875	32.02496337890635	1216.786865234375	765.5724487304688	80.03441619873057	1291.008422851563	578.4823608398438	93.03520202636732	1210.88037109375	416.2101440429688	25.93919181823743	1182.37548828125	217.9633331298828	63.42189025878919	1236.964477539063	312.6069946289063	95.34381866455092	1014.275451660156	824.3023071289063	382.9110412597657	993.4231567382813	586.5961303710938	343.3360290527344	1097.338623046875	733.1336059570313	313.0354003906251	1058.492065429688	509.11328125	283.0018310546876	951.9279174804688	430.5216979980469	343.0530395507814	906.5662841796875	180.1659393310547	295.6434936523439	980.6676635742188	298.8739624023438	259.7889404296876	800.4241333007813	70.33713531494142	240.987777709961	1117.582397460938	43.6843605041504	240.3165893554689	1017.497680664063	29.23234748840334	312.0026855468751	963.6805419921875	31.47334480285646	303.7560119628907	1093.96337890625	93.08582305908205	121.795623779297	1402.784790039063	84.62564086914063	65.87838745117205	1312.625366210938	62.69136047363282	134.3452148437502	1295.510620117188	52.7724609375	20.54497718811051	1244.095825195313	53.6778450012207	36.63341522216812	1283.602416992188	123.496696472168	84.45688629150405	1353.488525390625	63.82628631591798	124.0433807373049	1339.525024414063	63.60158157348633	20.96860313415543	0	0	0	899.487548828125	1043.969360351563	207.9072723388672	-200	0	-2.449293598294706e-14	-2.449293598294706e-14	1.224646799147353e-14	200	1.499759782661858e-30	200	-1.224646799147353e-14	nan	nan	nan	
117	0.9666666666666669	1156.260864257813	1441.909912109375	201.7219390869141	997.0967407226563	1545.184204101563	209.8509979248047	1044.32275390625	1529.299438476563	368.4021301269531	1025.637451171875	1535.639038085938	69.61253356933597	1186.216186523438	1281.32568359375	206.1425476074219	909.5819702148438	1329.450927734375	214.2598419189453	1095.784545898438	1023.271545410156	344.2949218750001	1104.346069335938	1013.443664550781	69.7644577026368	908.2476806640625	1046.899780273438	258.8270568847657	906.2355346679688	1039.5205078125	155.4423065185547	919.280029296875	1145.459594726563	206.5436553955079	1030.762817382813	1192.569091796875	476.7399291992188	1207.891723632813	987.6095581054688	505.2244262695314	1233.259887695313	992.1190795898438	458.8377685546876	1173.478881835938	959.0078125	501.1793823242189	926.4342041015625	1206.798217773438	-26.12495422363277	966.688232421875	950.81396484375	-94.22476196289057	935.6450805664063	944.2117309570313	-60.70666885375971	1012.750610351563	944.1782836914063	-74.9161300659179	1083.410888671875	846.1554565429688	10.17552566528328	1190.109497070313	638.8607788085938	33.11445999145518	1223.526000976563	763.8004150390625	80.80235290527355	1298.160522460938	578.9340209960938	94.61949157714857	1224.309692382813	414.4739074707031	26.92164802551282	1206.333374023438	214.5434722900391	63.51053619384779	1256.401733398438	311.9890441894531	95.05487823486342	1019.741455078125	823.9832153320313	382.9421386718751	996.9368286132813	586.242431640625	343.3331909179688	1102.170043945313	731.7470092773438	313.6056518554688	1061.674926757813	507.9756469726563	283.3722229003907	954.2237548828125	430.4535522460938	343.1136779785157	907.0868530273438	180.2469024658203	295.593719482422	982.372314453125	298.6217956542969	260.0670471191407	800.52783203125	70.52183532714845	240.8545074462891	1117.630615234375	43.53710937500001	240.2871551513673	1017.467102050781	29.03067970275881	311.9796142578126	963.0804443359375	31.25216484069826	303.6611938476564	1124.275146484375	85.83296966552736	121.3559188842775	1432.706909179688	89.25106811523438	63.43527221679705	1344.02783203125	64.06976318359376	132.713821411133	1326.462524414063	52.93846893310547	19.40559196472184	1275.211303710938	52.29079818725586	35.48175811767594	1312.353515625	123.8241119384766	82.81111145019545	1384.732299804688	66.78508758544923	122.0835494995119	1369.992797851563	65.49786376953125	19.12466812133805	0	0	0	907.2416381835938	1043.210205078125	207.1346893310547	-200	0	-2.449293598294706e-14	-2.449293598294706e-14	1.224646799147353e-14	200	1.499759782661858e-30	200	-1.224646799147353e-14	nan	nan	nan	
118	0.9750000000000002	1165.298583984375	1440.564819335938	202.1657714843751	1006.346435546875	1544.21044921875	209.9754180908203	1053.10546875	1528.0908203125	368.4955749511719	1035.34423828125	1534.676635742188	69.70794677734378	1194.58837890625	1279.708129882813	206.6501007080079	918.1265869140625	1328.712646484375	213.6219177246094	1102.851440429688	1022.265686035156	344.3726806640626	1112.848022460938	1011.921508789063	69.9976119995118	915.80126953125	1046.115234375	257.9085388183594	914.3170166015625	1038.693481445313	154.4758911132813	927.3713989257813	1144.620971679688	205.506088256836	1041.48876953125	1191.464477539063	477.2008056640626	1221.092895507813	988.5550537109375	505.1380004882814	1245.913330078125	993.1690063476563	458.4461669921876	1187.427124023438	959.5792846679688	501.7513122558595	933.4899291992188	1206.813842773438	-26.09896469116207	971.633056640625	950.577392578125	-93.70666503906244	940.8285522460938	944.0165405273438	-59.92226409912104	1017.376281738281	943.2000732421875	-73.99932098388665	1090.5107421875	844.4586181640625	9.768579483032308	1196.203857421875	637.1725463867188	34.5554656982423	1230.121459960938	761.8953247070313	81.72504425048839	1304.2919921875	578.0267944335938	95.79885864257825	1237.335693359375	412.8963012695313	28.07014274597181	1229.6904296875	211.9351043701172	63.1715126037599	1275.160766601563	311.923095703125	94.59771728515639	1025.179321289063	823.5985107421875	383.0823669433594	1000.623657226563	585.7420654296875	343.2781982421876	1107.17626953125	730.3929443359375	313.8995361328126	1064.902465820313	506.7181396484375	283.6702575683594	956.7011108398438	430.4031982421875	343.1067199707032	907.6650390625	180.3773651123047	295.6527404785157	984.0419311523438	298.2029113769531	260.3542785644532	800.5552978515625	70.5985565185547	240.7604370117188	1117.824340820313	43.2349090576172	240.1861267089845	1017.476318359375	28.95982742309572	311.981903076172	963.8090209960938	31.1349678039551	303.6885070800782	1154.64453125	78.62964630126955	121.0249938964845	1462.02880859375	94.50382232666016	60.88304519653337	1374.636474609375	66.05591583251955	130.5841522216799	1356.736694335938	54.4711799621582	17.60851287841813	1305.597412109375	51.83169174194336	34.32143020629899	1340.496704101563	124.7704467773438	81.09657287597672	1415.187255859375	70.24194335937501	119.7314605712892	1399.967895507813	68.61963653564453	16.84715461730974	0	0	0	915.0591430664063	1042.404418945313	206.1922149658204	-200	0	-2.449293598294706e-14	-2.449293598294706e-14	1.224646799147353e-14	200	1.499759782661858e-30	200	-1.224646799147353e-14	nan	nan	nan	
119	0.9833333333333335	1174.342041015625	1439.046020507813	202.6565856933594	1015.716552734375	1543.162841796875	209.9995727539063	1061.974853515625	1526.837646484375	368.5752563476563	1045.174682617188	1533.658325195313	69.77408599853518	1203.16650390625	1278.1083984375	207.3488769531251	926.8265380859375	1327.848754882813	212.9410095214844	1110.044677734375	1021.09619140625	344.4205627441407	1121.493530273438	1010.090576171875	70.27697753906259	923.4902954101563	1045.161987304688	256.9532775878907	922.5357666015625	1037.570068359375	153.5128326416016	935.609130859375	1143.546997070313	204.3953704833985	1052.187255859375	1190.201538085938	477.6176147460938	1233.991577148438	989.2064819335938	504.9512634277345	1258.722290039063	994.0786743164063	458.2947998046876	1200.1962890625	960.076904296875	501.2279052734376	940.6912841796875	1207.082763671875	-26.10543823242184	976.7098388671875	950.3609619140625	-93.39832305908197	945.9779663085938	943.9985961914063	-59.48191833496088	1022.909301757813	942.9034423828125	-74.33147430419915	1097.306762695313	842.4801025390625	9.80355262756356	1201.993896484375	635.2025146484375	36.43838500976574	1236.453002929688	759.5846557617188	82.89509582519543	1310.729614257813	577.0608520507813	97.52429962158216	1249.992065429688	411.3399353027344	29.29528236389173	1252.3701171875	210.1671752929688	62.85827255249038	1293.573608398438	311.8396911621094	94.83313751220717	1030.80224609375	823.1036987304688	383.1052246093751	1004.586669921875	585.214111328125	343.2978820800782	1112.401489257813	729.0901489257813	313.8878173828126	1068.328979492188	505.31591796875	283.8764648437501	959.2969360351563	430.1495361328125	343.1551208496095	908.2202758789063	180.3565368652344	295.5803527832032	985.9434814453125	297.7990112304688	260.6034545898439	800.6492919921875	70.85217285156251	240.8456115722657	1117.883422851563	43.07256317138673	240.237518310547	1017.553771972656	28.88402175903322	312.1096801757814	963.98095703125	31.16873359680178	303.763641357422	1184.990844726563	71.27500915527345	120.5627059936525	1490.316284179688	101.0522613525391	58.42100906372088	1404.474853515625	69.50070953369142	128.7451782226564	1386.111083984375	56.99454116821289	16.05508804321306	1335.00732421875	52.81613922119141	32.81592941284196	1367.849975585938	126.7749786376953	79.56735992431656	1444.787109375	75.17417144775392	117.6099090576174	1428.975952148438	72.80635070800781	14.82937431335466	0	0	0	923.0130004882813	1041.365966796875	205.2330627441407	-200	0	-2.449293598294706e-14	-2.449293598294706e-14	1.224646799147353e-14	200	1.499759782661858e-30	200	-1.224646799147353e-14	nan	nan	nan	
